PathFileType	4	(X/Y/Z)	c:/Users/goper/Files/vsCode/490R/osim_files/C11/C11_RoM_01.trc
DataRate	CameraRate	NumFrames	NumMarkers	Units                	OrigDataRate	OrigDataStartFrame	OrigNumFrames
120.00	120.00	4	36	mm	120.0	1	2195
                Frame#	Time	LPSI			LASI			LTH1			LTH2			LTH3			LTH4			LLFE			LMFE			LSH1			LSH2			LSH3			LSH4			LLMA			LMMA			LCAL			LMTP			LTOE			LMTP			RPSI			RASI			RTH1			RTH2			RTH3			RTH4			RLFE			RMFE			RSH1			RSH2			RSH3			RSH4			RLMA			RMMA			RCAL			RMTP			RTOE			RMTP		
		X1	Y1	Z1	X2	Y2	Z2	X3	Y3	Z3	X4	Y4	Z4	X5	Y5	Z5	X6	Y6	Z6	X7	Y7	Z7	X8	Y8	Z8	X9	Y9	Z9	X10	Y10	Z10	X11	Y11	Z11	X12	Y12	Z12	X13	Y13	Z13	X14	Y14	Z14	X15	Y15	Z15	X16	Y16	Z16	X17	Y17	Z17	X18	Y18	Z18	X19	Y19	Z19	X20	Y20	Z20	X21	Y21	Z21	X22	Y22	Z22	X23	Y23	Z23	X24	Y24	Z24	X25	Y25	Z25	X26	Y26	Z26	X27	Y27	Z27	X28	Y28	Z28	X29	Y29	Z29	X30	Y30	Z30	X31	Y31	Z31	X32	Y32	Z32	X33	Y33	Z33	X34	Y34	Z34	X35	Y35	Z35	X36	Y36	Z36

1	0.00000	-326.09402	1014.73395	439.75400	-150.36275	1011.88647	367.41516	-268.14896	643.56384	284.00711	-265.23251	596.05719	282.67462	-207.31564	642.22913	282.04639	-213.74059	595.81195	284.20139	-266.24762	515.52246	280.01901	-250.10783	504.22937	390.09256	-326.87473	413.53079	266.18326	-326.73306	369.89581	262.49179	-265.26703	408.79294	257.35989	-274.23199	364.67130	255.78865	-306.56915	96.95818	297.67102	-271.69284	111.41394	389.69498	-362.36868	60.66811	354.75656	-197.65608	39.43951	257.95941	-121.72551	55.80650	322.74460	-159.47130	45.05238	370.99011	-322.45813	1025.31653	524.68176	-156.54076	1003.34131	601.74316	-264.42316	630.49786	666.12598	-261.02618	586.54059	664.16162	-202.32893	627.85236	657.03802	-208.94690	585.29895	657.68542	-246.46222	519.35278	654.87720	-273.45853	490.57355	545.37549	-320.09637	415.22192	681.69659	-316.51004	369.15329	683.74731	-258.36301	411.92200	676.52557	-263.58051	365.11694	681.36670	-306.49258	98.63430	659.05688	-278.44376	105.57572	565.21063	-367.50357	59.33821	612.08075	-151.69832	49.61380	592.15125	-148.25311	61.89532	642.01379	-190.10417	38.51720	702.97797
2	0.00833	-326.35522	1014.78192	439.64981	-150.57326	1011.82483	367.37158	-268.25244	643.59406	283.94669	-265.30563	596.10266	282.60446	-207.42523	642.21820	282.03455	-213.85973	595.81128	284.16983	-266.32620	515.54529	279.97464	-250.17502	504.24680	390.05307	-326.86749	413.55939	266.08234	-326.74609	369.90295	262.42477	-265.31766	408.78534	257.32867	-274.29941	364.64417	255.74226	-306.54721	96.97751	297.65140	-271.67365	111.47749	389.69626	-362.34088	60.68845	354.71484	-197.60535	39.49455	257.94086	-121.69427	55.84325	322.71866	-159.45395	45.06723	370.96841	-322.70721	1025.34399	524.61755	-156.82291	1003.49664	601.66949	-264.53857	630.54041	666.11206	-261.13116	586.59119	664.15814	-202.44978	627.90106	657.02441	-209.04649	585.35559	657.65076	-246.52321	519.40076	654.86041	-273.57388	490.58511	545.36853	-320.16998	415.25549	681.67188	-316.54654	369.23026	683.74017	-258.41162	411.96133	676.52905	-263.65628	365.14941	681.32825	-306.48514	98.90783	659.22113	-278.46848	105.59695	565.20007	-367.51498	59.41711	612.07892	-151.72011	49.59941	592.15045	-148.38417	61.66077	641.88995	-190.23862	38.44702	702.88580
3	0.01667	-326.58585	1014.80219	439.59668	-150.85446	1011.77325	367.38004	-268.33200	643.63617	283.88358	-265.37482	596.11737	282.53525	-207.54292	642.20227	282.01709	-213.95569	595.78607	284.13687	-266.39923	515.56128	279.92148	-250.30077	504.34073	389.90927	-326.92200	413.56772	266.04468	-326.78070	369.91290	262.37723	-265.35663	408.73615	257.30408	-274.33768	364.59250	255.73224	-306.51410	97.01506	297.63675	-271.56067	111.53182	389.66968	-362.29318	60.71027	354.67554	-197.55936	39.51717	257.94205	-121.65768	55.83051	322.69675	-159.42513	45.08390	370.93753	-322.89639	1025.38928	524.53162	-157.00275	1003.47797	601.42859	-264.60083	630.56207	666.11053	-261.17056	586.62476	664.15173	-202.50133	627.90771	656.97198	-209.13629	585.38434	657.63116	-246.57434	519.41168	654.81641	-273.66870	490.63266	545.36316	-320.20087	415.26373	681.65680	-316.49445	369.25125	683.71838	-258.40649	411.99881	676.47400	-263.66263	365.17670	681.28998	-306.34937	98.69433	659.06531	-278.41925	105.60544	565.20538	-367.46454	59.44770	612.06616	-151.73724	49.45192	592.23334	-148.20145	61.91021	641.96118	-190.15324	38.49175	702.87189
4	0.02500	-326.81274	1014.79449	439.57242	-151.12335	1011.75513	367.35220	-268.43112	643.67072	283.84720	-265.46411	596.14276	282.48566	-207.64235	642.22839	281.99792	-214.05637	595.80756	284.12042	-266.49173	515.57916	279.87817	-250.41096	504.20847	389.99020	-326.94440	413.56265	265.95578	-326.79752	369.93765	262.31870	-265.40848	408.72604	257.28372	-274.39243	364.57614	255.69859	-306.48563	97.01249	297.60599	-271.50891	111.60038	389.66153	-362.24338	60.74081	354.65149	-197.50941	39.54445	257.93692	-121.62454	55.87070	322.68561	-159.37578	45.12755	370.92450	-323.10046	1025.44507	524.46100	-157.32384	1003.62048	601.34064	-264.69803	630.62433	666.08466	-261.24686	586.68903	664.14166	-202.60429	628.00043	656.94196	-209.24190	585.42548	657.59583	-246.65967	519.45709	654.78162	-273.72141	490.68060	545.33118	-320.26309	415.29422	681.62305	-316.53363	369.33154	683.71027	-258.42529	412.06531	676.46442	-263.71701	365.20380	681.27039	-306.31482	98.77263	659.06506	-278.37454	105.64694	565.20447	-367.45087	59.52935	612.05115	-151.72449	49.46602	592.20361	-148.16919	61.95383	641.92963	-189.95755	38.63171	702.91443
